Coordinates
version=1
nRows=10
nColumns=22
inDegrees=yes

Units are S.I. units (second, meters, Newtons, ...)
If the header above contains a line with 'inDegrees', this indicates whether rotational values are in degrees (yes) or radians (no).

endheader
time	pelvis_tilt	pelvis_list	pelvis_rotation	pelvis_tx	pelvis_ty	pelvis_tz	hip_flexion_r	hip_adduction_r	hip_rotation_r	knee_angle_r	ankle_angle_r	subtalar_angle_r	hip_flexion_l	hip_adduction_l	hip_rotation_l	knee_angle_l	ankle_angle_l	subtalar_angle_l	lumbar_extension	lumbar_bending	lumbar_rotation
      0.37000000	      4.46752639	      1.76962422	     -1.25538865	     -0.73844597	      0.93110189	     -0.11324921	     -1.04004018	     -3.56137896	     -1.54563164	    -57.90681196	     -8.14110574	     15.16426066	     10.74277918	      4.93449294	    -11.62937698	    -29.62446335	     21.21204994	    -15.09133754	    -13.70698742	     -2.83013303	     -6.39464948
      0.38000000	      4.53636024	      1.56204723	     -1.01362842	     -0.72970352	      0.93257521	     -0.11436522	      0.85190163	     -3.50939488	     -1.72125343	    -59.16447458	     -7.10004145	     14.89973153	      9.73976570	      4.81543753	    -11.54257410	    -29.04989501	     21.44610607	    -14.68195267	    -13.82909463	     -2.49972771	     -6.80217227
      0.39000000	      4.61230186	      1.33425883	     -0.71802881	     -0.72093203	      0.93406876	     -0.11552373	      2.67438163	     -3.41142388	     -1.93540471	    -60.10549414	     -5.99666311	     14.61093078	      8.71571856	      4.67454291	    -11.41655975	    -28.44527254	     21.64952306	    -14.31206964	    -13.93718803	     -2.13814827	     -7.24145357
      0.40000000	      4.68737374	      1.08928156	     -0.37789730	     -0.71212869	      0.93555302	     -0.11671598	      4.43608704	     -3.28356761	     -2.20306175	    -60.74299335	     -4.87016003	     14.27182035	      7.67698977	      4.51521743	    -11.23805287	    -27.80479678	     21.83940091	    -13.92632690	    -14.01899157	     -1.75259556	     -7.66379781
      0.41000000	      4.77633758	      0.84367126	      0.00011431	     -0.70331490	      0.93702535	     -0.11793317	      6.11899016	     -3.14365248	     -2.51372849	    -61.09149881	     -3.71820544	     13.95505046	      6.61376342	      4.35153402	    -11.01798242	    -27.13695657	     21.99674682	    -13.55537301	    -14.10037934	     -1.36413086	     -8.09304420
      0.42000000	      4.87865863	      0.60088568	      0.40803529	     -0.69447285	      0.93846911	     -0.11916048	      7.71531590	     -3.00542469	     -2.87809305	    -61.15758126	     -2.57329083	     13.65536077	      5.52257870	      4.18254503	    -10.77104715	    -26.43529876	     22.13265402	    -13.19034394	    -14.17844653	     -0.97851747	     -8.51617263
      0.43000000	      4.99490981	      0.36673061	      0.84230308	     -0.68560164	      0.93986285	     -0.12039298	      9.21657785	     -2.88121209	     -3.30185973	    -60.95022742	     -1.46081242	     13.36285085	      4.40447664	      4.01185484	    -10.50345481	    -25.70179324	     22.24635437	    -12.83934416	    -14.25652477	     -0.60235488	     -8.93299568
      0.44000000	      5.12494890	      0.14230755	      1.29554437	     -0.67669204	      0.94118686	     -0.12160598	     10.61617358	     -2.77585368	     -3.78637128	    -60.47787639	     -0.40082930	     13.03390742	      3.26250219	      3.83568894	    -10.23129457	    -24.94229232	     22.34992804	    -12.50042551	    -14.33811953	     -0.23920350	     -9.34300464
      0.45000000	      5.27039675	     -0.07204978	      1.76208400	     -0.66774221	      0.94242329	     -0.12278400	     11.90589369	     -2.69062901	     -4.33117036	    -59.74740573	      0.59213140	     12.62014035	      2.09832070	      3.65182884	     -9.96076639	    -24.16360646	     22.44799364	    -12.16655947	    -14.42797253	      0.10888500	     -9.74606938
      0.46000000	      5.42654263	     -0.27585493	      2.24023019	     -0.65875534	      0.94354341	     -0.12391594	     13.08574505	     -2.62671146	     -4.93778301	    -58.76590056	      1.50849464	     12.14551540	      0.92424032	      3.45859775	     -9.69605908	    -23.37986862	     22.54874188	    -11.85254361	    -14.52597938	      0.44177911	    -10.14605837
